<svg width="85" height="48" viewBox="0 0 85 48" fill="none" xmlns="http://www.w3.org/2000/svg">
<path d="M2.336 10.08H7.232L10.912 28.032L14.72 10.08H19.488L19.968 36H16.448L16.064 17.984L12.384 36H9.536L5.792 17.92L5.44 36H1.888L2.336 10.08Z" fill="#FFC145"/>
<path d="M29.1077 36.288C27.1237 36.288 25.6411 35.744 24.6597 34.656C23.6784 33.5467 23.1877 31.9467 23.1877 29.856V23.648C23.1877 21.5573 23.6784 19.968 24.6597 18.88C25.6411 17.7707 27.1237 17.216 29.1077 17.216C31.0918 17.216 32.5744 17.7707 33.5558 18.88C34.5584 19.968 35.0597 21.5573 35.0597 23.648V29.856C35.0597 31.9467 34.5584 33.5467 33.5558 34.656C32.5744 35.744 31.0918 36.288 29.1077 36.288ZM29.1398 33.28C29.8011 33.28 30.2384 33.024 30.4518 32.512C30.6651 31.9787 30.7718 31.2 30.7718 30.176V23.36C30.7718 22.336 30.6651 21.5573 30.4518 21.024C30.2384 20.4907 29.8011 20.224 29.1398 20.224C28.4571 20.224 28.0091 20.4907 27.7957 21.024C27.5824 21.5573 27.4757 22.336 27.4757 23.36V30.176C27.4757 31.2 27.5824 31.9787 27.7957 32.512C28.0091 33.024 28.4571 33.28 29.1398 33.28Z" fill="#FFC145"/>
<path d="M36.8223 17.504H41.0462L42.9342 30.784L44.7903 17.504H48.9823L45.3022 36H40.4702L36.8223 17.504Z" fill="#FFC145"/>
<path d="M51.1357 10.944H55.4878V14.56H51.1357V10.944ZM51.1357 17.504H55.4878V36H51.1357V17.504Z" fill="#FFC145"/>
<path d="M64.5452 36.288C62.4972 36.288 60.9932 35.7227 60.0332 34.592C59.0732 33.44 58.5933 31.744 58.5933 29.504V24C58.5933 21.7387 59.0732 20.0427 60.0332 18.912C61.0146 17.7813 62.5186 17.216 64.5452 17.216C66.6359 17.216 68.1079 17.8027 68.9613 18.976C69.8359 20.1493 70.2733 21.92 70.2733 24.288V26.944H62.9132V30.592C62.9132 31.488 63.0412 32.1387 63.2972 32.544C63.5746 32.9493 64.0012 33.152 64.5772 33.152C65.1319 33.152 65.5266 32.96 65.7613 32.576C66.0173 32.1707 66.1452 31.5627 66.1452 30.752V29.184H70.2412V30.464C70.2412 32.3627 69.7613 33.8133 68.8013 34.816C67.8413 35.7973 66.4226 36.288 64.5452 36.288ZM66.1452 24.8V23.04C66.1452 22.08 66.0279 21.3973 65.7933 20.992C65.5586 20.5653 65.1426 20.352 64.5452 20.352C63.9266 20.352 63.4999 20.576 63.2653 21.024C63.0306 21.472 62.9132 22.304 62.9132 23.52V24.8H66.1452Z" fill="#FFC145"/>
<path d="M78.2505 36.288C76.6932 36.288 75.4132 35.872 74.4105 35.04C73.4078 34.208 72.6932 32.992 72.2665 31.392L75.4985 30.144C75.9892 32.2133 76.8852 33.248 78.1865 33.248C78.6772 33.248 79.0505 33.12 79.3065 32.864C79.5838 32.608 79.7225 32.256 79.7225 31.808C79.7225 31.3173 79.5732 30.8693 79.2745 30.464C78.9758 30.0373 78.4425 29.504 77.6745 28.864L75.4665 26.944C74.5278 26.176 73.8345 25.4293 73.3865 24.704C72.9385 23.9787 72.7145 23.0933 72.7145 22.048C72.7145 20.5973 73.2052 19.4347 74.1865 18.56C75.1892 17.664 76.4478 17.216 77.9625 17.216C79.4132 17.216 80.5972 17.6533 81.5145 18.528C82.4318 19.3813 83.0292 20.544 83.3065 22.016L80.4585 23.232C80.2878 22.3787 79.9998 21.6853 79.5945 21.152C79.2105 20.5973 78.7092 20.32 78.0905 20.32C77.6425 20.32 77.2798 20.4587 77.0025 20.736C76.7465 21.0133 76.6185 21.3653 76.6185 21.792C76.6185 22.1333 76.7678 22.496 77.0665 22.88C77.3652 23.264 77.8132 23.712 78.4105 24.224L80.6505 26.272C81.6105 27.104 82.3465 27.904 82.8585 28.672C83.3918 29.4187 83.6585 30.3253 83.6585 31.392C83.6585 32.9493 83.1465 34.1547 82.1225 35.008C81.1198 35.8613 79.8292 36.288 78.2505 36.288Z" fill="#FFC145"/>
</svg>
